<svg xmlns="http://www.w3.org/2000/svg" xmlns:xlink="http://www.w3.org/1999/xlink" xmlns:lucid="lucid" width="750.06" height="730"><g transform="translate(-449.94444444444446 -119)" lucid:page-tab-id="0_0"><path d="M940 586c0-3.3 2.7-6 6-6h228c3.3 0 6 2.7 6 6v48c0 3.3-2.7 6-6 6H946c-3.3 0-6-2.7-6-6z" fill="none"/><use xlink:href="#a" transform="matrix(1,0,0,1,940,580) translate(38.611111111111114 17.77777777777778)"/><use xlink:href="#b" transform="matrix(1,0,0,1,940,580) translate(124.96913580246914 17.77777777777778)"/><use xlink:href="#c" transform="matrix(1,0,0,1,940,580) translate(38.611111111111114 44.44444444444444)"/><use xlink:href="#d" transform="matrix(1,0,0,1,940,580) translate(142.2530864197531 44.44444444444444)"/><use xlink:href="#e" transform="matrix(1,0,0,1,940,580) translate(120 71.11111111111111)"/><path d="M480 440h120v120H480V440z" stroke="#fff" stroke-opacity="0" stroke-width="2" fill="#d86613"/><path d="M576.8 540h-19.72c-.64 0-1.15-.32-1.4-.88l-27.92-58.32h-11.78c-.9 0-1.6-.72-1.6-1.6v-17.6c0-.88.7-1.6 1.6-1.6h24.65c.64 0 1.15.32 1.4.88l27.8 58.32h6.97c.9 0 1.6.72 1.6 1.6v17.6c0 .88-.7 1.6-1.6 1.6zm-18.7-3.2h17.1v-14.4h-6.4c-.64 0-1.15-.32-1.4-.88l-27.8-58.32H517.6v14.4h11.2c.65 0 1.16.32 1.48.88z" stroke="#fff" stroke-opacity="0" stroke-width="2" fill="#fff"/><path d="M523.96 540h-20.8c-.55 0-1.05-.3-1.37-.73-.33-.54-.33-1.12-.08-1.6l21.78-45.46c.24-.58.8-.92 1.4-.92.65 0 1.18.34 1.46.88l10.4 21.43c.26.43.26.92 0 1.4L525.42 539c-.2.63-.77 1.02-1.44 1.02zm-18.24-3.22h17.24l10.6-22.36-8.6-17.88z" stroke="#fff" stroke-opacity="0" stroke-width="2" fill="#fff"/><use xlink:href="#f" transform="matrix(1,0,0,1,450,569) translate(21.944444444444443 17.77777777777778)"/><use xlink:href="#g" transform="matrix(1,0,0,1,450,569) translate(77.87037037037035 17.77777777777778)"/><path d="M740 440h120v120H740V440z" stroke="#fff" stroke-opacity="0" fill="#d6242d"/><path d="M835.52 470.4h-71.04c-2.48 0-4.48 2-4.48 4.5v50.2c0 2.5 2 4.5 4.48 4.5h71.04c2.48 0 4.48-2 4.48-4.5v-50.2c0-2.5-2-4.5-4.48-4.5zm1.28 54.7c0 .7-.56 1.3-1.28 1.3h-71.04c-.72 0-1.28-.6-1.28-1.3v-50.2c0-.7.56-1.3 1.28-1.3h71.04c.72 0 1.28.6 1.28 1.3z" stroke="#fff" stroke-opacity="0" fill="#fff"/><path d="M804.8 491.2h16v3.2h-16v-3.2zM827.2 491.2h3.2v3.2h-3.2v-3.2zM797.92 496.5c-.3-.35-.67-.52-1.12-.52h-22.4v-8c.03-1.85.86-3.45 2.4-4.53 1.7-1.3 3.5-1.85 5.6-1.85 2.18-.05 4.06.64 5.76 2.03 1.4 1.08 2.18 2.6 2.24 4.36v7.98h3.2v-8.64c-.06-2.63-1.25-4.84-3.4-6.4-2.33-1.76-4.86-2.58-7.8-2.54-6.18 0-11.2 4.02-11.2 8.94v8.64H768c-.9 0-1.6.74-1.6 1.6V520c0 .87.7 1.6 1.6 1.6h28.8c.9 0 1.6-.73 1.6-1.6v-22.42c0-.43-.16-.78-.45-1.08zm-2.72 7.52h-4.8v3.2h4.8v3.2h-4.8v3.2h4.8v4.78h-25.6v-19.18h25.6z" stroke="#fff" stroke-opacity="0" fill="#fff"/><path d="M782.4 501.7c-2 .03-3.7 1.2-4.38 3.1-.9 2.42.35 5.1 2.78 6v4.4h3.2v-4.4c1.87-.68 3.06-2.38 3.07-4.38 0-2.6-2.08-4.7-4.67-4.7zm0 6.73c-1.12 0-2.03-.9-2.03-2.02 0-1.13.9-2.03 2.03-2.03 1.12 0 2.04.9 2.04 2.04 0 1.13-.92 2.03-2.04 2.03zM804.8 499.2H816v3.2h-11.2v-3.2zM822.4 499.2h8v3.2h-8v-3.2zM804.8 507.2h20.8v3.2h-20.8v-3.2z" stroke="#fff" stroke-opacity="0" fill="#fff"/><use xlink:href="#f" transform="matrix(1,0,0,1,710,569) translate(16.45061728395062 17.77777777777778)"/><use xlink:href="#h" transform="matrix(1,0,0,1,710,569) translate(72.37654320987653 17.77777777777778)"/><use xlink:href="#i" transform="matrix(1,0,0,1,710,569) translate(117.99382716049382 17.77777777777778)"/><path d="M1000 440h120v120h-120V440z" stroke="#fff" stroke-opacity="0" fill="#cc2264"/><path d="M1098.4 538.4h-11.2v-3.23h9.6v-70.34h-73.6v70.34h44.8v3.23h-46.4c-.88 0-1.6-.7-1.6-1.6v-73.6c0-.9.72-1.6 1.6-1.6h76.8c.88 0 1.6.7 1.6 1.6v73.6c0 .9-.72 1.6-1.6 1.6z" stroke="#fff" stroke-opacity="0" fill="#fff"/><path d="M1021.6 474.4h76.8v3.2h-76.8v-3.2zM1026.4 468h3.2v3.2h-3.2V468zM1032.8 468h3.2v3.2h-3.2V468zM1039.2 468h3.2v3.2h-3.2V468zM1038.4 521.3l-2.26-2.28 14.23-14.2-14.23-14.22 2.26-2.28 15.35 15.37c.33.28.47.68.47 1.1 0 .44-.16.83-.47 1.13zM1056.8 512.8h24v3.2h-24v-3.2z" stroke="#fff" stroke-opacity="0" fill="#fff"/><path d="M680 146c0-3.3 2.7-6 6-6h228c3.3 0 6 2.7 6 6v19.33c0 3.32-2.7 6-6 6H686c-3.3 0-6-2.68-6-6z" fill="none"/><use xlink:href="#j" transform="matrix(1,0,0,1,680,140) translate(1.6358024691357969 17.77777777777778)"/><use xlink:href="#k" transform="matrix(1,0,0,1,680,140) translate(74.35185185185185 17.77777777777778)"/><use xlink:href="#l" transform="matrix(1,0,0,1,680,140) translate(105.21604938271605 17.77777777777778)"/><use xlink:href="#m" transform="matrix(1,0,0,1,680,140) translate(154.53703703703704 17.77777777777778)"/><use xlink:href="#n" transform="matrix(1,0,0,1,680,140) translate(198.9814814814815 17.77777777777778)"/><use xlink:href="#e" transform="matrix(1,0,0,1,680,140) translate(120 44.44444444444444)"/><path d="M740 200h120v120H740V200z" stroke="#fff" stroke-opacity="0" stroke-width="2" fill="#d86613"/><path d="M836.8 264.8h-8.02v-3.18h8.02v-38.44h-38.44v8.02h-3.18v-8.02c0-1.75 1.44-3.18 3.18-3.18h38.44c1.75 0 3.18 1.43 3.18 3.18v38.44c0 1.75-1.43 3.18-3.18 3.18zM801.6 300h-38.44c-1.74 0-3.18-1.43-3.18-3.18v-38.44c0-1.75 1.44-3.18 3.18-3.18h8.02v3.18h-8.02v38.44h38.44v-8.02h3.18v8.02c0 1.75-1.43 3.18-3.18 3.18z" stroke="#fff" stroke-opacity="0" stroke-width="2" fill="#fff"/><path d="M825.6 245.6v-3.2h-4.8c-.12-1.7-1.5-3.08-3.2-3.2v-4.8h-3.2v4.8h-4.77v-4.8h-3.23v4.8h-4.8v-4.8h-3.2v4.8h-4.8v-4.8h-3.17v4.8h-4.82v-4.8h-3.2v4.8c-1.7.12-3.08 1.5-3.2 3.2h-4.8v3.2h4.8v4.83h-4.8v3.17h4.8v4.8h-4.8v3.2h4.8v4.8h-4.8v3.23h4.8v4.76h-4.8v3.2h4.8c.12 1.7 1.5 3.08 3.2 3.2v4.8h3.2v-4.8h4.83v4.8h3.17v-4.8h4.8v4.8h3.2v-4.8h4.8v4.8h3.23v-4.8h4.76v4.8h3.2v-4.8c1.7-.12 3.08-1.5 3.2-3.2h4.8v-3.2h-4.8v-4.77h4.8v-3.23h-4.8v-4.8h4.8v-3.2h-4.8v-4.8h4.8v-3.17h-4.8v-4.82zm-8 31.7c0 .16-.14.3-.3.3h-34.6c-.16 0-.3-.14-.3-.3v-34.6c0-.16.14-.3.3-.3h34.6c.16 0 .3.14.3.3z" stroke="#fff" stroke-opacity="0" stroke-width="2" fill="#fff"/><use xlink:href="#o" transform="matrix(1,0,0,1,710,329) translate(24.629629629629633 17.77777777777778)"/><use xlink:href="#p" transform="matrix(1,0,0,1,710,329) translate(112.22222222222223 17.77777777777778)"/><path d="M620 680h120v120H620V680z" stroke="#fff" stroke-opacity="0" fill="#cc2264"/><path d="M718.4 778.4h-11.2v-3.23h9.6v-70.34h-73.6v70.34H688v3.23h-46.4c-.88 0-1.6-.7-1.6-1.6v-73.6c0-.9.72-1.6 1.6-1.6h76.8c.88 0 1.6.7 1.6 1.6v73.6c0 .9-.72 1.6-1.6 1.6z" stroke="#fff" stroke-opacity="0" fill="#fff"/><path d="M641.6 714.4h76.8v3.2h-76.8v-3.2zM646.4 708h3.2v3.2h-3.2V708zM652.8 708h3.2v3.2h-3.2V708zM659.2 708h3.2v3.2h-3.2V708zM658.4 761.3l-2.26-2.28 14.23-14.2-14.23-14.22 2.26-2.28 15.35 15.37c.33.28.47.68.47 1.1 0 .44-.16.83-.47 1.13zM676.8 752.8h24v3.2h-24v-3.2z" stroke="#fff" stroke-opacity="0" fill="#fff"/><g><use xlink:href="#q" transform="matrix(1,0,0,1,590,809) translate(67.19135802469137 17.77777777777778)"/></g><path d="M875.2 680h120v120h-120V680z" stroke="#fff" stroke-opacity="0" stroke-width="2" fill="#d86613"/><path d="M972 744.8h-8.02v-3.18H972v-38.44h-38.44v8.02h-3.18v-8.02c0-1.75 1.44-3.18 3.18-3.18H972c1.75 0 3.18 1.43 3.18 3.18v38.44c0 1.75-1.43 3.18-3.18 3.18zM936.8 780h-38.44c-1.74 0-3.18-1.43-3.18-3.18v-38.44c0-1.75 1.44-3.18 3.18-3.18h8.02v3.18h-8.02v38.44h38.44v-8.02h3.18v8.02c0 1.75-1.43 3.18-3.18 3.18z" stroke="#fff" stroke-opacity="0" stroke-width="2" fill="#fff"/><path d="M960.8 725.6v-3.2H956c-.12-1.7-1.5-3.08-3.2-3.2v-4.8h-3.2v4.8h-4.77v-4.8h-3.23v4.8h-4.8v-4.8h-3.2v4.8h-4.8v-4.8h-3.17v4.8h-4.82v-4.8h-3.2v4.8c-1.7.12-3.08 1.5-3.2 3.2h-4.8v3.2h4.8v4.83h-4.8v3.17h4.8v4.8h-4.8v3.2h4.8v4.8h-4.8v3.23h4.8v4.76h-4.8v3.2h4.8c.12 1.7 1.5 3.08 3.2 3.2v4.8h3.2v-4.8h4.83v4.8h3.17v-4.8h4.8v4.8h3.2v-4.8h4.8v4.8h3.23v-4.8h4.76v4.8h3.2v-4.8c1.7-.12 3.08-1.5 3.2-3.2h4.8v-3.2H956v-4.77h4.8v-3.23H956v-4.8h4.8v-3.2H956v-4.8h4.8v-3.17H956v-4.82zm-8 31.7c0 .16-.14.3-.3.3h-34.6c-.16 0-.3-.14-.3-.3v-34.6c0-.16.14-.3.3-.3h34.6c.16 0 .3.14.3.3z" stroke="#fff" stroke-opacity="0" stroke-width="2" fill="#fff"/><g><use xlink:href="#r" transform="matrix(1,0,0,1,845.1999999999534,809) translate(24.629629629629633 17.77777777777778)"/><use xlink:href="#s" transform="matrix(1,0,0,1,845.1999999999534,809) translate(112.22222222222223 17.77777777777778)"/></g><defs><path fill="#333" d="M30 0v-248h33v221h125V0H30" id="t"/><path fill="#333" d="M141-36C126-15 110 5 73 4 37 3 15-17 15-53c-1-64 63-63 125-63 3-35-9-54-41-54-24 1-41 7-42 31l-33-3c5-37 33-52 76-52 45 0 72 20 72 64v82c-1 20 7 32 28 27v20c-31 9-61-2-59-35zM48-53c0 20 12 33 32 33 41-3 63-29 60-74-43 2-92-5-92 41" id="u"/><path fill="#333" d="M210-169c-67 3-38 105-44 169h-31v-121c0-29-5-50-35-48C34-165 62-65 56 0H25l-1-190h30c1 10-1 24 2 32 10-44 99-50 107 0 11-21 27-35 58-36 85-2 47 119 55 194h-31v-121c0-29-5-49-35-48" id="v"/><path fill="#333" d="M115-194c53 0 69 39 70 98 0 66-23 100-70 100C84 3 66-7 56-30L54 0H23l1-261h32v101c10-23 28-34 59-34zm-8 174c40 0 45-34 45-75 0-40-5-75-45-74-42 0-51 32-51 76 0 43 10 73 51 73" id="w"/><path fill="#333" d="M85-194c31 0 48 13 60 33l-1-100h32l1 261h-30c-2-10 0-23-3-31C134-8 116 4 85 4 32 4 16-35 15-94c0-66 23-100 70-100zm9 24c-40 0-46 34-46 75 0 40 6 74 45 74 42 0 51-32 51-76 0-42-9-74-50-73" id="x"/><g id="a"><use transform="matrix(0.06172839506172839,0,0,0.06172839506172839,0,0)" xlink:href="#t"/><use transform="matrix(0.06172839506172839,0,0,0.06172839506172839,12.345679012345679,0)" xlink:href="#u"/><use transform="matrix(0.06172839506172839,0,0,0.06172839506172839,24.691358024691358,0)" xlink:href="#v"/><use transform="matrix(0.06172839506172839,0,0,0.06172839506172839,43.148148148148145,0)" xlink:href="#w"/><use transform="matrix(0.06172839506172839,0,0,0.06172839506172839,55.49382716049382,0)" xlink:href="#x"/><use transform="matrix(0.06172839506172839,0,0,0.06172839506172839,67.8395061728395,0)" xlink:href="#u"/></g><path fill="#333" d="M212-179c-10-28-35-45-73-45-59 0-87 40-87 99 0 60 29 101 89 101 43 0 62-24 78-52l27 14C228-24 195 4 139 4 59 4 22-46 18-125c-6-104 99-153 187-111 19 9 31 26 39 46" id="y"/><path fill="#333" d="M84 4C-5 8 30-112 23-190h32v120c0 31 7 50 39 49 72-2 45-101 50-169h31l1 190h-30c-1-10 1-25-2-33-11 22-28 36-60 37" id="z"/><path fill="#333" d="M135-143c-3-34-86-38-87 0 15 53 115 12 119 90S17 21 10-45l28-5c4 36 97 45 98 0-10-56-113-15-118-90-4-57 82-63 122-42 12 7 21 19 24 35" id="A"/><path fill="#333" d="M59-47c-2 24 18 29 38 22v24C64 9 27 4 27-40v-127H5v-23h24l9-43h21v43h35v23H59v120" id="B"/><path fill="#333" d="M100-194c62-1 85 37 85 99 1 63-27 99-86 99S16-35 15-95c0-66 28-99 85-99zM99-20c44 1 53-31 53-75 0-43-8-75-51-75s-53 32-53 75 10 74 51 75" id="C"/><g id="b"><use transform="matrix(0.06172839506172839,0,0,0.06172839506172839,0,0)" xlink:href="#y"/><use transform="matrix(0.06172839506172839,0,0,0.06172839506172839,15.987654320987653,0)" xlink:href="#z"/><use transform="matrix(0.06172839506172839,0,0,0.06172839506172839,28.333333333333332,0)" xlink:href="#A"/><use transform="matrix(0.06172839506172839,0,0,0.06172839506172839,39.44444444444444,0)" xlink:href="#B"/><use transform="matrix(0.06172839506172839,0,0,0.06172839506172839,45.617283950617285,0)" xlink:href="#C"/><use transform="matrix(0.06172839506172839,0,0,0.06172839506172839,57.96296296296296,0)" xlink:href="#v"/></g><path fill="#333" d="M30 0v-248h187v28H63v79h144v27H63v87h162V0H30" id="D"/><path fill="#333" d="M141 0L90-78 38 0H4l68-98-65-92h35l48 74 47-74h35l-64 92 68 98h-35" id="E"/><path fill="#333" d="M100-194c63 0 86 42 84 106H49c0 40 14 67 53 68 26 1 43-12 49-29l28 8c-11 28-37 45-77 45C44 4 14-33 15-96c1-61 26-98 85-98zm52 81c6-60-76-77-97-28-3 7-6 17-6 28h103" id="F"/><path fill="#333" d="M96-169c-40 0-48 33-48 73s9 75 48 75c24 0 41-14 43-38l32 2c-6 37-31 61-74 61-59 0-76-41-82-99-10-93 101-131 147-64 4 7 5 14 7 22l-32 3c-4-21-16-35-41-35" id="G"/><path fill="#333" d="M24-231v-30h32v30H24zM24 0v-190h32V0H24" id="H"/><path fill="#333" d="M117-194c89-4 53 116 60 194h-32v-121c0-31-8-49-39-48C34-167 62-67 57 0H25l-1-190h30c1 10-1 24 2 32 11-22 29-35 61-36" id="I"/><g id="c"><use transform="matrix(0.06172839506172839,0,0,0.06172839506172839,0,0)" xlink:href="#D"/><use transform="matrix(0.06172839506172839,0,0,0.06172839506172839,14.814814814814813,0)" xlink:href="#E"/><use transform="matrix(0.06172839506172839,0,0,0.06172839506172839,25.925925925925924,0)" xlink:href="#F"/><use transform="matrix(0.06172839506172839,0,0,0.06172839506172839,38.2716049382716,0)" xlink:href="#G"/><use transform="matrix(0.06172839506172839,0,0,0.06172839506172839,49.38271604938271,0)" xlink:href="#z"/><use transform="matrix(0.06172839506172839,0,0,0.06172839506172839,61.728395061728385,0)" xlink:href="#B"/><use transform="matrix(0.06172839506172839,0,0,0.06172839506172839,67.90123456790123,0)" xlink:href="#H"/><use transform="matrix(0.06172839506172839,0,0,0.06172839506172839,72.77777777777777,0)" xlink:href="#C"/><use transform="matrix(0.06172839506172839,0,0,0.06172839506172839,85.12345679012346,0)" xlink:href="#I"/></g><path fill="#333" d="M30-248c87 1 191-15 191 75 0 78-77 80-158 76V0H30v-248zm33 125c57 0 124 11 124-50 0-59-68-47-124-48v98" id="J"/><path fill="#333" d="M24 0v-261h32V0H24" id="K"/><path fill="#333" d="M179-190L93 31C79 59 56 82 12 73V49c39 6 53-20 64-50L1-190h34L92-34l54-156h33" id="L"/><g id="d"><use transform="matrix(0.06172839506172839,0,0,0.06172839506172839,0,0)" xlink:href="#J"/><use transform="matrix(0.06172839506172839,0,0,0.06172839506172839,14.814814814814813,0)" xlink:href="#C"/><use transform="matrix(0.06172839506172839,0,0,0.06172839506172839,27.160493827160494,0)" xlink:href="#K"/><use transform="matrix(0.06172839506172839,0,0,0.06172839506172839,32.03703703703704,0)" xlink:href="#H"/><use transform="matrix(0.06172839506172839,0,0,0.06172839506172839,36.91358024691358,0)" xlink:href="#G"/><use transform="matrix(0.06172839506172839,0,0,0.06172839506172839,48.0246913580247,0)" xlink:href="#L"/></g><path fill="#333" d="M205 0l-28-72H64L36 0H1l101-248h38L239 0h-34zm-38-99l-47-123c-12 45-31 82-46 123h93" id="M"/><path fill="#333" d="M266 0h-40l-56-210L115 0H75L2-248h35L96-30l15-64 43-154h32l59 218 59-218h35" id="N"/><path fill="#333" d="M185-189c-5-48-123-54-124 2 14 75 158 14 163 119 3 78-121 87-175 55-17-10-28-26-33-46l33-7c5 56 141 63 141-1 0-78-155-14-162-118-5-82 145-84 179-34 5 7 8 16 11 25" id="O"/><g id="f"><use transform="matrix(0.06172839506172839,0,0,0.06172839506172839,0,0)" xlink:href="#M"/><use transform="matrix(0.06172839506172839,0,0,0.06172839506172839,14.012345679012345,0)" xlink:href="#N"/><use transform="matrix(0.06172839506172839,0,0,0.06172839506172839,34.938271604938265,0)" xlink:href="#O"/></g><g id="g"><use transform="matrix(0.06172839506172839,0,0,0.06172839506172839,0,0)" xlink:href="#t"/><use transform="matrix(0.06172839506172839,0,0,0.06172839506172839,12.345679012345679,0)" xlink:href="#u"/><use transform="matrix(0.06172839506172839,0,0,0.06172839506172839,24.691358024691358,0)" xlink:href="#v"/><use transform="matrix(0.06172839506172839,0,0,0.06172839506172839,43.148148148148145,0)" xlink:href="#w"/><use transform="matrix(0.06172839506172839,0,0,0.06172839506172839,55.49382716049382,0)" xlink:href="#x"/><use transform="matrix(0.06172839506172839,0,0,0.06172839506172839,67.8395061728395,0)" xlink:href="#u"/></g><path fill="#333" d="M33 0v-248h34V0H33" id="P"/><path fill="#333" d="M240 0l2-218c-23 76-54 145-80 218h-23L58-218 59 0H30v-248h44l77 211c21-75 51-140 76-211h43V0h-30" id="Q"/><g id="h"><use transform="matrix(0.06172839506172839,0,0,0.06172839506172839,0,0)" xlink:href="#P"/><use transform="matrix(0.06172839506172839,0,0,0.06172839506172839,6.172839506172839,0)" xlink:href="#M"/><use transform="matrix(0.06172839506172839,0,0,0.06172839506172839,20.98765432098765,0)" xlink:href="#Q"/></g><path fill="#333" d="M233-177c-1 41-23 64-60 70L243 0h-38l-65-103H63V0H30v-248c88 3 205-21 203 71zM63-129c60-2 137 13 137-47 0-61-80-42-137-45v92" id="R"/><g id="i"><use transform="matrix(0.06172839506172839,0,0,0.06172839506172839,0,0)" xlink:href="#R"/><use transform="matrix(0.06172839506172839,0,0,0.06172839506172839,15.987654320987653,0)" xlink:href="#C"/><use transform="matrix(0.06172839506172839,0,0,0.06172839506172839,28.333333333333332,0)" xlink:href="#K"/><use transform="matrix(0.06172839506172839,0,0,0.06172839506172839,33.20987654320987,0)" xlink:href="#F"/></g><path fill="#333" d="M114-163C36-179 61-72 57 0H25l-1-190h30c1 12-1 29 2 39 6-27 23-49 58-41v29" id="S"/><g id="j"><use transform="matrix(0.06172839506172839,0,0,0.06172839506172839,0,0)" xlink:href="#y"/><use transform="matrix(0.06172839506172839,0,0,0.06172839506172839,15.987654320987653,0)" xlink:href="#S"/><use transform="matrix(0.06172839506172839,0,0,0.06172839506172839,23.333333333333332,0)" xlink:href="#F"/><use transform="matrix(0.06172839506172839,0,0,0.06172839506172839,35.67901234567901,0)" xlink:href="#u"/><use transform="matrix(0.06172839506172839,0,0,0.06172839506172839,48.02469135802469,0)" xlink:href="#B"/><use transform="matrix(0.06172839506172839,0,0,0.06172839506172839,54.19753086419753,0)" xlink:href="#F"/></g><g id="k"><use transform="matrix(0.06172839506172839,0,0,0.06172839506172839,0,0)" xlink:href="#u"/><use transform="matrix(0.06172839506172839,0,0,0.06172839506172839,12.345679012345679,0)" xlink:href="#I"/></g><path fill="#333" d="M101-251c82-7 93 87 43 132L82-64C71-53 59-42 53-27h129V0H18c2-99 128-94 128-182 0-28-16-43-45-43s-46 15-49 41l-32-3c6-41 34-60 81-64" id="T"/><g id="l"><use transform="matrix(0.06172839506172839,0,0,0.06172839506172839,0,0)" xlink:href="#D"/><use transform="matrix(0.06172839506172839,0,0,0.06172839506172839,14.814814814814813,0)" xlink:href="#y"/><use transform="matrix(0.06172839506172839,0,0,0.06172839506172839,30.80246913580247,0)" xlink:href="#T"/></g><path fill="#333" d="M194 0L95-120 63-95V0H30v-248h33v124l119-124h40L117-140 236 0h-42" id="U"/><g id="m"><use transform="matrix(0.06172839506172839,0,0,0.06172839506172839,0,0)" xlink:href="#U"/><use transform="matrix(0.06172839506172839,0,0,0.06172839506172839,14.814814814814813,0)" xlink:href="#F"/><use transform="matrix(0.06172839506172839,0,0,0.06172839506172839,27.160493827160494,0)" xlink:href="#L"/></g><g id="n"><use transform="matrix(0.06172839506172839,0,0,0.06172839506172839,0,0)" xlink:href="#J"/><use transform="matrix(0.06172839506172839,0,0,0.06172839506172839,14.814814814814813,0)" xlink:href="#u"/><use transform="matrix(0.06172839506172839,0,0,0.06172839506172839,27.160493827160494,0)" xlink:href="#H"/><use transform="matrix(0.06172839506172839,0,0,0.06172839506172839,32.03703703703704,0)" xlink:href="#S"/></g><path fill="#333" d="M9 0v-24l116-142H16v-24h144v24L44-24h123V0H9" id="V"/><g id="o"><use transform="matrix(0.06172839506172839,0,0,0.06172839506172839,0,0)" xlink:href="#M"/><use transform="matrix(0.06172839506172839,0,0,0.06172839506172839,14.814814814814813,0)" xlink:href="#v"/><use transform="matrix(0.06172839506172839,0,0,0.06172839506172839,33.2716049382716,0)" xlink:href="#u"/><use transform="matrix(0.06172839506172839,0,0,0.06172839506172839,45.61728395061728,0)" xlink:href="#V"/><use transform="matrix(0.06172839506172839,0,0,0.06172839506172839,56.72839506172839,0)" xlink:href="#C"/><use transform="matrix(0.06172839506172839,0,0,0.06172839506172839,69.07407407407408,0)" xlink:href="#I"/></g><g id="p"><use transform="matrix(0.06172839506172839,0,0,0.06172839506172839,0,0)" xlink:href="#D"/><use transform="matrix(0.06172839506172839,0,0,0.06172839506172839,14.814814814814813,0)" xlink:href="#y"/><use transform="matrix(0.06172839506172839,0,0,0.06172839506172839,30.80246913580247,0)" xlink:href="#T"/></g><path fill="#333" d="M197 0v-115H63V0H30v-248h33v105h134v-105h34V0h-34" id="W"/><g id="q"><use transform="matrix(0.06172839506172839,0,0,0.06172839506172839,0,0)" xlink:href="#O"/><use transform="matrix(0.06172839506172839,0,0,0.06172839506172839,14.814814814814813,0)" xlink:href="#O"/><use transform="matrix(0.06172839506172839,0,0,0.06172839506172839,29.629629629629626,0)" xlink:href="#W"/></g><g id="r"><use transform="matrix(0.06172839506172839,0,0,0.06172839506172839,0,0)" xlink:href="#M"/><use transform="matrix(0.06172839506172839,0,0,0.06172839506172839,14.814814814814813,0)" xlink:href="#v"/><use transform="matrix(0.06172839506172839,0,0,0.06172839506172839,33.2716049382716,0)" xlink:href="#u"/><use transform="matrix(0.06172839506172839,0,0,0.06172839506172839,45.61728395061728,0)" xlink:href="#V"/><use transform="matrix(0.06172839506172839,0,0,0.06172839506172839,56.72839506172839,0)" xlink:href="#C"/><use transform="matrix(0.06172839506172839,0,0,0.06172839506172839,69.07407407407408,0)" xlink:href="#I"/></g><g id="s"><use transform="matrix(0.06172839506172839,0,0,0.06172839506172839,0,0)" xlink:href="#D"/><use transform="matrix(0.06172839506172839,0,0,0.06172839506172839,14.814814814814813,0)" xlink:href="#y"/><use transform="matrix(0.06172839506172839,0,0,0.06172839506172839,30.80246913580247,0)" xlink:href="#T"/></g></defs></g></svg>